<svg width="20" height="21" viewBox="0 0 20 21" fill="none" xmlns="http://www.w3.org/2000/svg">
<g id="call_FILL0_wght400_GRAD0_opsz48 1">
<path id="Vector" d="M16.5625 18C14.8681 18 13.184 17.5833 11.5104 16.75C9.83681 15.9167 8.33333 14.8333 7 13.5C5.66667 12.1667 4.58333 10.6632 3.75 8.98958C2.91667 7.31597 2.5 5.63194 2.5 3.9375C2.5 3.66964 2.58928 3.44642 2.76785 3.26785C2.94642 3.08928 3.16964 3 3.4375 3H6.35417C6.54321 3 6.712 3.06597 6.86054 3.19792C7.00907 3.32986 7.10417 3.50694 7.14583 3.72917L7.70833 6.35417C7.73611 6.54861 7.73264 6.72569 7.69792 6.88542C7.66319 7.04514 7.59028 7.18056 7.47917 7.29167L5.39583 9.39583C6.17361 10.6875 7.04514 11.8125 8.01042 12.7708C8.97569 13.7292 10.0694 14.5417 11.2917 15.2083L13.2708 13.1667C13.4097 13.0139 13.5694 12.9062 13.75 12.8438C13.9306 12.7812 14.1111 12.7708 14.2917 12.8125L16.7708 13.3542C16.9835 13.401 17.1582 13.5065 17.2949 13.6706C17.4316 13.8346 17.5 14.0278 17.5 14.25V17.0625C17.5 17.3304 17.4107 17.5536 17.2321 17.7321C17.0536 17.9107 16.8304 18 16.5625 18ZM4.77083 8.25L6.45833 6.54167L5.97917 4.25H3.75C3.75 4.79167 3.83333 5.38542 4 6.03125C4.16667 6.67708 4.42361 7.41667 4.77083 8.25ZM12.4583 15.8125C13.0278 16.0764 13.6458 16.2917 14.3125 16.4583C14.9792 16.625 15.625 16.7222 16.25 16.75V14.5208L14.1042 14.0833L12.4583 15.8125Z" fill="#57534E"/>
</g>
</svg>
