<svg width="17" height="40" viewBox="0 0 17 40" fill="none" xmlns="http://www.w3.org/2000/svg">
<g id="Frame" clip-path="url(#clip0_665_7073)">
<g id="Group">
<path id="Vector" d="M11.5022 12.9917H5.49473C4.58693 12.9917 3.74321 13.2213 2.96357 13.6806C2.20529 14.1185 1.60721 14.7165 1.16933 15.4748C0.710089 16.2438 0.480469 17.0822 0.480469 17.99V23.9975C0.480469 24.9053 0.710089 25.749 1.16933 26.5286C1.60721 27.2869 2.20529 27.885 2.96357 28.3229C3.74321 28.7821 4.58693 29.0117 5.49473 29.0117H11.5022C12.41 29.0117 13.2484 28.7821 14.0174 28.3229C14.7756 27.885 15.3737 27.2869 15.8116 26.5286C16.2708 25.749 16.5005 24.9053 16.5005 23.9975V17.99C16.5005 17.0822 16.2708 16.2438 15.8116 15.4748C15.3737 14.7165 14.7756 14.1185 14.0174 13.6806C13.2484 13.2213 12.41 12.9917 11.5022 12.9917ZM14.9946 23.9975C14.9946 24.6276 14.8371 25.2123 14.522 25.7516C14.2069 26.291 13.7824 26.7182 13.2484 27.0332C12.7144 27.3483 12.1323 27.5058 11.5022 27.5058H5.49473C4.85393 27.5058 4.26653 27.3483 3.73253 27.0332C3.19853 26.7182 2.774 26.2937 2.45894 25.7597C2.14388 25.2257 1.98635 24.6383 1.98635 23.9975V17.99C1.98635 17.3598 2.14388 16.7778 2.45894 16.2438C2.774 15.7098 3.2012 15.2852 3.74054 14.9702C4.27988 14.6551 4.86461 14.4976 5.49473 14.4976H11.5022C12.1323 14.4976 12.7144 14.6551 13.2484 14.9702C13.7824 15.2852 14.2069 15.7098 14.522 16.2438C14.8371 16.7778 14.9946 17.3598 14.9946 17.99V23.9975ZM8.49047 16.9967C7.76423 16.9967 7.09406 17.1756 6.47996 17.5334C5.86586 17.8912 5.37992 18.3771 5.02214 18.9912C4.66436 19.6053 4.48547 20.2755 4.48547 21.0017C4.48547 21.728 4.66436 22.3981 5.02214 23.0122C5.37992 23.6263 5.86586 24.1123 6.47996 24.47C7.09406 24.8278 7.76423 25.0067 8.49047 25.0067C9.21671 25.0067 9.88688 24.8278 10.501 24.47C11.1151 24.1123 11.601 23.6263 11.9588 23.0122C12.3166 22.3981 12.4955 21.728 12.4955 21.0017C12.4955 20.2755 12.3166 19.6053 11.9588 18.9912C11.601 18.3771 11.1151 17.8912 10.501 17.5334C9.88688 17.1756 9.21671 16.9967 8.49047 16.9967ZM8.49047 23.5008C8.04191 23.5008 7.62539 23.3887 7.24091 23.1644C6.85643 22.9401 6.55205 22.6358 6.32777 22.2513C6.10349 21.8668 5.99135 21.4503 5.99135 21.0017C5.99135 20.5532 6.10349 20.1366 6.32777 19.7522C6.55205 19.3677 6.85643 19.0633 7.24091 18.839C7.62539 18.6147 8.04191 18.5026 8.49047 18.5026C8.93903 18.5026 9.35555 18.6147 9.74003 18.839C10.1245 19.0633 10.4289 19.3677 10.6532 19.7522C10.8774 20.1366 10.9896 20.5532 10.9896 21.0017C10.9896 21.4503 10.8774 21.8668 10.6532 22.2513C10.4289 22.6358 10.1245 22.9401 9.74003 23.1644C9.35555 23.3887 8.93903 23.5008 8.49047 23.5008ZM12.7998 16.1637C12.9494 16.1637 13.0749 16.2144 13.1763 16.3159C13.2778 16.4173 13.3285 16.5428 13.3285 16.6923C13.3285 16.8419 13.2751 16.97 13.1683 17.0768C13.0615 17.1836 12.936 17.237 12.7918 17.237C12.6477 17.237 12.5222 17.1836 12.4154 17.0768C12.3086 16.97 12.2552 16.8419 12.2552 16.6923C12.2552 16.5428 12.3086 16.4173 12.4154 16.3159C12.5222 16.2144 12.6503 16.1637 12.7998 16.1637Z" fill="#926B4F"/>
</g>
</g>
<defs>
<clipPath id="clip0_665_7073">
<rect width="16.02" height="40" fill="white" transform="matrix(1 0 0 -1 0.480469 40)"/>
</clipPath>
</defs>
</svg>
