<svg width="20" height="40" viewBox="0 0 20 40" fill="none" xmlns="http://www.w3.org/2000/svg">
<g id="location_on_FILL0_wght400_GRAD0_opsz48 1">
<path id="Vector" d="M10.0006 9.79297C10.4021 9.79297 10.7452 9.64999 11.0299 9.36403C11.3147 9.07809 11.457 8.73434 11.457 8.33278C11.457 7.93124 11.3141 7.58811 11.0281 7.30339C10.7422 7.01866 10.3984 6.8763 9.99684 6.8763C9.5953 6.8763 9.25217 7.01928 8.96745 7.30524C8.68273 7.59118 8.54037 7.93493 8.54037 8.33649C8.54037 8.73803 8.68334 9.08116 8.9693 9.36588C9.25525 9.65061 9.599 9.79297 10.0006 9.79297ZM9.9987 16.6888C11.8459 15.0082 13.2105 13.4839 14.0924 12.1159C14.9744 10.7478 15.4154 9.54297 15.4154 8.5013C15.4154 6.86533 14.8925 5.52578 13.8468 4.48266C12.8011 3.43953 11.5184 2.91797 9.9987 2.91797C8.47902 2.91797 7.19632 3.43953 6.15061 4.48266C5.10489 5.52578 4.58203 6.86533 4.58203 8.5013C4.58203 9.54297 5.03342 10.7478 5.9362 12.1159C6.83898 13.4839 8.19314 15.0082 9.9987 16.6888ZM9.9987 18.3346C7.76259 16.4319 6.09245 14.6645 4.98828 13.0326C3.88411 11.4006 3.33203 9.89019 3.33203 8.5013C3.33203 6.41797 4.00217 4.75825 5.34245 3.52214C6.68273 2.28602 8.23481 1.66797 9.9987 1.66797C11.7626 1.66797 13.3147 2.28602 14.6549 3.52214C15.9952 4.75825 16.6654 6.41797 16.6654 8.5013C16.6654 9.89019 16.1133 11.4006 15.0091 13.0326C13.9049 14.6645 12.2348 16.4319 9.9987 18.3346Z" fill="#57534E"/>
</g>
</svg>
