<svg width="386" height="107" viewBox="0 0 386 107" fill="none" xmlns="http://www.w3.org/2000/svg">
<path d="M103.581 46.4938H105.269C106.682 46.4938 107.701 46.0604 108.33 45.1844L118.828 31.2191C119.324 30.553 119.87 30.0967 120.457 29.8413C121.049 29.5858 121.774 29.458 122.632 29.458H130.07L116.855 46.3843C115.997 47.4838 115.112 48.2731 114.194 48.7476C114.859 49.0122 115.46 49.3589 115.997 49.7832C116.529 50.2121 117.048 50.7733 117.543 51.4759L131.107 70.7335H123.467C122.972 70.7335 122.545 70.697 122.192 70.6195C121.838 70.5419 121.531 70.437 121.265 70.3047C120.999 70.1724 120.769 70.0036 120.577 69.8074C120.384 69.6112 120.205 69.3785 120.03 69.1093L109.362 54.2635C109 53.7479 108.568 53.3875 108.073 53.1685C107.577 52.9495 106.88 52.84 105.985 52.84H103.581V70.7335H95V29.458H103.581V46.4984V46.4938Z" fill="#926B4F"/>
<path d="M170.183 70.729H163.516C162.773 70.729 162.167 70.5556 161.699 70.2043C161.231 69.853 160.887 69.4013 160.658 68.8539L157.854 60.9747H141.317L138.513 68.8539C138.325 69.3283 137.99 69.7572 137.513 70.1495C137.036 70.5373 136.435 70.7335 135.71 70.7335H128.987L145.208 29.458H153.99L170.183 70.7335V70.729ZM143.405 55.0573H155.766L151.274 42.4242C151.008 41.7627 150.723 40.9825 150.43 40.0928C150.136 39.2032 149.847 38.2451 149.558 37.2186C149.292 38.2633 149.016 39.2351 148.727 40.1339C148.438 41.0327 148.163 41.8174 147.897 42.479L143.405 55.0528V55.0573Z" fill="#926B4F"/>
<path d="M178.553 29.4988C178.81 29.5261 179.044 29.5946 179.255 29.6949C179.466 29.7999 179.663 29.9368 179.856 30.1056C180.044 30.2744 180.255 30.5025 180.484 30.7899L201.312 57.1009C201.234 56.3801 201.179 55.6775 201.142 54.9977C201.105 54.3134 201.087 53.67 201.087 53.0633V29.4531H208.667V70.7287H204.235C203.569 70.7287 203.005 70.6191 202.546 70.4002C202.087 70.1812 201.642 69.8071 201.202 69.2778L180.516 43.1356C180.576 43.7972 180.617 44.4496 180.645 45.0837C180.672 45.7179 180.686 46.311 180.686 46.863V70.7287H173.106V29.4531H177.626C177.988 29.4531 178.296 29.4668 178.553 29.4988Z" fill="#926B4F"/>
<path d="M244.123 70.1158C241.728 70.8276 239.199 71.1834 236.529 71.1834C233.115 71.1834 230.027 70.6588 227.26 69.6049C224.493 68.551 222.13 67.0864 220.166 65.2113C218.202 63.3362 216.684 61.1052 215.619 58.5275C214.55 55.9498 214.018 53.1302 214.018 50.078C214.018 47.0258 214.527 44.1515 215.55 41.5738C216.569 38.9961 218.023 36.7788 219.914 34.9174C221.8 33.0605 224.089 31.6097 226.765 30.5649C229.444 29.5247 232.445 29 235.763 29C237.479 29 239.08 29.1369 240.571 29.4106C242.058 29.6844 243.43 30.063 244.692 30.5466C245.949 31.0302 247.101 31.6051 248.152 32.2667C249.198 32.9328 250.152 33.6627 251.01 34.4566L248.523 38.2707C248.143 38.8775 247.647 39.247 247.037 39.3793C246.426 39.5116 245.761 39.3611 245.036 38.9231C244.348 38.5079 243.678 38.1338 243.017 37.8008C242.356 37.4677 241.659 37.1803 240.916 36.9339C240.172 36.6876 239.36 36.4959 238.484 36.3636C237.607 36.2313 236.598 36.1675 235.451 36.1675C233.523 36.1675 231.78 36.5005 230.215 37.162C228.65 37.8236 227.32 38.7634 226.223 39.977C225.126 41.1906 224.282 42.6505 223.69 44.3569C223.098 46.0632 222.805 47.9702 222.805 50.0735C222.805 52.3501 223.126 54.3849 223.777 56.1779C224.424 57.9709 225.342 59.481 226.526 60.7129C227.71 61.9492 229.123 62.8845 230.775 63.5278C232.427 64.1711 234.258 64.495 236.281 64.495C237.653 64.495 238.878 64.3582 239.957 64.0844C241.035 63.8107 242.09 63.4366 243.118 62.9621V56.0182H238.424C237.873 56.0182 237.437 55.8722 237.121 55.5756C236.809 55.2837 236.648 54.905 236.648 54.4533V49.7039H250.896V66.7443C248.78 68.2818 246.523 69.4041 244.128 70.1158H244.123Z" fill="#926B4F"/>
<path d="M262.431 29.4988C262.688 29.5261 262.922 29.5946 263.133 29.6949C263.344 29.7999 263.542 29.9368 263.734 30.1056C263.922 30.2744 264.134 30.5025 264.363 30.7899L285.19 57.1009C285.112 56.3801 285.057 55.6775 285.021 54.9977C284.984 54.3134 284.965 53.67 284.965 53.0633V29.4531H292.546V70.7287H288.113C287.448 70.7287 286.884 70.6191 286.425 70.4002C285.966 70.1812 285.521 69.8071 285.08 69.2778L264.395 43.1356C264.455 43.7972 264.496 44.4496 264.524 45.0837C264.551 45.7179 264.565 46.311 264.565 46.863V70.7287H256.985V29.4531H261.504C261.867 29.4531 262.174 29.4668 262.431 29.4988Z" fill="#926B4F"/>
<path d="M336.66 70.729H329.993C329.249 70.729 328.644 70.5556 328.176 70.2043C327.708 69.853 327.363 69.4013 327.134 68.8539L324.33 60.9747H307.793L304.99 68.8539C304.802 69.3283 304.467 69.7572 303.989 70.1495C303.512 70.5373 302.911 70.7335 302.186 70.7335H295.464L311.684 29.458H320.467L336.66 70.7335V70.729ZM309.881 55.0573H322.243L317.75 42.4242C317.484 41.7627 317.2 40.9825 316.906 40.0928C316.612 39.2032 316.323 38.2451 316.034 37.2186C315.768 38.2633 315.493 39.2351 315.204 40.1339C314.915 41.0327 314.639 41.8174 314.373 42.479L309.881 55.0528V55.0573Z" fill="#926B4F"/>
<path d="M361.562 54.8566C361.874 55.5592 362.177 56.2755 362.461 57.0191C362.746 56.2618 363.053 55.5227 363.379 54.8018C363.7 54.081 364.044 53.3875 364.407 52.726L375.938 30.7948C376.108 30.4708 376.291 30.2199 376.479 30.042C376.667 29.8595 376.874 29.7272 377.094 29.6451C377.314 29.5584 377.562 29.5082 377.838 29.4899C378.113 29.4717 378.443 29.4626 378.824 29.4626H385.344V70.7381H377.764V45.3943C377.764 44.8833 377.778 44.3221 377.805 43.7153C377.838 43.1085 377.879 42.4789 377.934 41.8356L366.091 64.2231C365.444 65.4595 364.439 66.0708 363.085 66.0708H361.883C361.218 66.0708 360.626 65.9157 360.112 65.6009C359.598 65.2861 359.185 64.8253 358.882 64.2185L346.952 41.7763C347.012 42.4196 347.058 43.0538 347.094 43.6697C347.131 44.2856 347.149 44.8605 347.149 45.3897V70.7335H339.569V29.458H346.089C346.452 29.458 346.778 29.4671 347.062 29.4854C347.351 29.5036 347.599 29.5584 347.819 29.6405C348.04 29.7272 348.237 29.8595 348.42 30.0374C348.604 30.2199 348.778 30.4663 348.948 30.7902L360.566 52.8081C360.91 53.4742 361.241 54.154 361.553 54.8566H361.562Z" fill="#926B4F"/>
<path opacity="0.8" d="M96.408 101.183V89.8233H99.8C103.4 89.8233 105.704 92.1593 105.704 95.5193C105.704 98.8633 103.48 101.183 99.848 101.183H96.408ZM97.8 99.9193H99.768C102.536 99.9193 104.264 98.0793 104.264 95.5193C104.264 92.9273 102.472 91.0873 99.816 91.0873H97.8V99.9193ZM109.217 91.9673C108.689 91.9673 108.273 91.5513 108.273 91.0393C108.273 90.5273 108.689 90.1113 109.217 90.1113C109.745 90.1113 110.161 90.5273 110.161 91.0393C110.161 91.5513 109.745 91.9673 109.217 91.9673ZM108.561 101.183V93.3913H109.857V101.183H108.561ZM115.379 101.279C114.083 101.279 113.091 100.831 112.339 100.175L112.995 99.1833C113.603 99.7753 114.291 100.127 115.379 100.127C116.323 100.127 116.867 99.6633 116.867 99.0713C116.867 98.3833 116.147 98.1913 115.011 97.7753C113.747 97.3273 112.675 96.8153 112.675 95.3913C112.675 94.1913 113.763 93.2953 115.235 93.2953C116.179 93.2953 117.059 93.5513 117.923 94.2553L117.251 95.2793C116.579 94.6553 115.859 94.4473 115.187 94.4473C114.579 94.4473 113.987 94.7993 113.987 95.3913C113.987 95.9993 114.611 96.3033 115.459 96.6073C117.107 97.2473 118.195 97.5353 118.179 99.0553C118.179 100.271 117.251 101.279 115.379 101.279ZM124.044 101.279C121.772 101.279 120.156 99.6633 120.156 97.2953C120.156 94.9433 121.772 93.2953 124.092 93.2953C125.26 93.2953 126.46 93.7753 127.228 94.6873L126.348 95.4713C125.852 94.8953 125.084 94.4793 124.156 94.4793C122.556 94.4793 121.484 95.6473 121.484 97.2953C121.484 98.9593 122.556 100.095 124.14 100.095C125.068 100.095 125.884 99.6953 126.364 99.1033L127.26 99.9193C126.604 100.703 125.564 101.279 124.044 101.279ZM133.171 101.279C130.755 101.279 129.139 99.5353 129.139 97.2953C129.139 95.0553 130.755 93.2953 133.171 93.2953C135.475 93.2953 137.187 94.9273 137.187 97.2953C137.187 99.6633 135.475 101.279 133.171 101.279ZM133.171 100.095C134.659 100.095 135.859 98.9593 135.859 97.2953C135.859 95.6313 134.675 94.4793 133.171 94.4793C131.539 94.4793 130.467 95.7433 130.467 97.2953C130.467 98.8473 131.555 100.095 133.171 100.095ZM141.658 101.183L138.49 93.3913H139.898L142.282 99.5353H142.298L144.682 93.3913H146.074L142.906 101.183H141.658ZM154.765 97.1513C154.765 97.3593 154.733 97.5833 154.733 97.6793H148.653C148.829 99.1353 149.853 100.095 151.325 100.095C152.365 100.095 153.101 99.6473 153.581 99.0553L154.493 99.8233C153.821 100.687 152.845 101.279 151.277 101.279C148.973 101.279 147.341 99.6793 147.341 97.2953C147.341 94.9433 148.957 93.2953 151.181 93.2953C153.309 93.2953 154.765 94.9273 154.765 97.1513ZM151.165 94.4793C149.917 94.4793 148.925 95.2953 148.685 96.6233H153.469C153.277 95.3433 152.445 94.4793 151.165 94.4793ZM157.305 101.183V93.3913H158.601V94.8153H158.633C159.193 93.8713 160.089 93.2953 161.161 93.2953C161.273 93.2953 161.369 93.2953 161.481 93.3113V94.7513C161.289 94.7353 161.097 94.7193 160.969 94.7193C159.481 94.7193 158.601 95.8553 158.601 97.4233V101.183H157.305ZM171.465 101.183V96.1113L167.609 89.8233H169.209L172.153 94.7033H172.185L175.113 89.8233H176.745L172.857 96.1113V101.183H171.465ZM180.918 101.279C178.502 101.279 176.886 99.5353 176.886 97.2953C176.886 95.0553 178.502 93.2953 180.918 93.2953C183.222 93.2953 184.934 94.9273 184.934 97.2953C184.934 99.6633 183.222 101.279 180.918 101.279ZM180.918 100.095C182.406 100.095 183.606 98.9593 183.606 97.2953C183.606 95.6313 182.422 94.4793 180.918 94.4793C179.286 94.4793 178.214 95.7433 178.214 97.2953C178.214 98.8473 179.302 100.095 180.918 100.095ZM190.258 101.279C188.466 101.279 187.33 100.255 187.33 98.0313V93.3913H188.626V97.6633C188.626 99.4233 189.298 100.095 190.53 100.095C191.778 100.095 192.85 99.0233 192.85 97.1673V93.3913H194.146V101.183H192.85V99.8393H192.834C192.242 100.767 191.282 101.279 190.258 101.279ZM197.13 101.183V93.3913H198.426V94.8153H198.458C199.018 93.8713 199.914 93.2953 200.986 93.2953C201.098 93.2953 201.194 93.2953 201.306 93.3113V94.7513C201.114 94.7353 200.922 94.7193 200.794 94.7193C199.306 94.7193 198.426 95.8553 198.426 97.4233V101.183H197.13ZM208.602 101.183V89.8233H212.57C215.226 89.8233 216.33 91.3273 216.33 93.3433C216.33 95.7433 214.698 96.8473 212.33 96.8473H209.994V101.183H208.602ZM209.994 95.5833H212.202C214.09 95.5833 214.89 94.6233 214.89 93.3113C214.89 91.8553 213.946 91.0873 212.426 91.0873H209.994V95.5833ZM225.666 97.1513C225.666 97.3593 225.634 97.5833 225.634 97.6793H219.554C219.73 99.1353 220.754 100.095 222.226 100.095C223.266 100.095 224.002 99.6473 224.482 99.0553L225.394 99.8233C224.722 100.687 223.746 101.279 222.178 101.279C219.874 101.279 218.242 99.6793 218.242 97.2953C218.242 94.9433 219.858 93.2953 222.082 93.2953C224.21 93.2953 225.666 94.9273 225.666 97.1513ZM222.066 94.4793C220.818 94.4793 219.826 95.2953 219.586 96.6233H224.37C224.178 95.3433 223.346 94.4793 222.066 94.4793ZM228.206 101.183V93.3913H229.502V94.8153H229.534C230.094 93.8713 230.99 93.2953 232.062 93.2953C232.174 93.2953 232.27 93.2953 232.382 93.3113V94.7513C232.19 94.7353 231.998 94.7193 231.87 94.7193C230.382 94.7193 229.502 95.8553 229.502 97.4233V101.183H228.206ZM234.807 101.183V94.5113H233.863V93.3913H234.807V91.8073C234.807 90.1433 235.607 89.2953 236.999 89.2953C237.783 89.2953 238.375 89.5353 238.807 89.8073L238.519 90.9113C238.023 90.6553 237.591 90.4953 237.159 90.4953C236.519 90.4953 236.103 90.9113 236.103 91.9353V93.3913H238.311V94.5113H236.103V101.183H234.807ZM247.18 97.1513C247.18 97.3593 247.148 97.5833 247.148 97.6793H241.068C241.244 99.1353 242.268 100.095 243.74 100.095C244.78 100.095 245.516 99.6473 245.996 99.0553L246.908 99.8233C246.236 100.687 245.26 101.279 243.692 101.279C241.388 101.279 239.756 99.6793 239.756 97.2953C239.756 94.9433 241.372 93.2953 243.596 93.2953C245.724 93.2953 247.18 94.9273 247.18 97.1513ZM243.58 94.4793C242.332 94.4793 241.34 95.2953 241.1 96.6233H245.884C245.692 95.3433 244.86 94.4793 243.58 94.4793ZM253.112 101.279C250.84 101.279 249.224 99.6633 249.224 97.2953C249.224 94.9433 250.84 93.2953 253.16 93.2953C254.328 93.2953 255.528 93.7753 256.296 94.6873L255.416 95.4713C254.92 94.8953 254.152 94.4793 253.224 94.4793C251.624 94.4793 250.552 95.6473 250.552 97.2953C250.552 98.9593 251.624 100.095 253.208 100.095C254.136 100.095 254.952 99.6953 255.432 99.1033L256.328 99.9193C255.672 100.703 254.632 101.279 253.112 101.279ZM260.896 101.279C259.52 101.279 258.88 100.431 258.88 98.8633V94.5113H257.872V93.3913H258.88V90.7353L260.176 90.5913V93.3913H262.752V94.5113H260.176V98.6713C260.176 99.6153 260.384 100.063 261.12 100.063C261.584 100.063 262.064 99.8713 262.448 99.6633L262.784 100.799C262.352 101.055 261.824 101.279 260.896 101.279ZM270.316 101.183V89.8233H271.708V95.1513H277.644V89.8233H279.036V101.183H277.644V96.4153H271.708V101.183H270.316ZM285.831 101.279C283.415 101.279 281.799 99.5353 281.799 97.2953C281.799 95.0553 283.415 93.2953 285.831 93.2953C288.135 93.2953 289.847 94.9273 289.847 97.2953C289.847 99.6633 288.135 101.279 285.831 101.279ZM285.831 100.095C287.319 100.095 288.519 98.9593 288.519 97.2953C288.519 95.6313 287.335 94.4793 285.831 94.4793C284.199 94.4793 283.127 95.7433 283.127 97.2953C283.127 98.8473 284.215 100.095 285.831 100.095ZM292.42 101.183V93.3913H293.716V94.7993H293.732C294.324 93.8553 295.3 93.2953 296.34 93.2953C297.508 93.2953 298.356 93.8873 298.756 94.9593H298.772C299.364 93.9033 300.42 93.2953 301.636 93.2953C303.364 93.2953 304.324 94.4793 304.324 96.7033V101.183H303.028V97.0553C303.028 95.3913 302.436 94.4793 301.252 94.4793C300.036 94.4793 299.06 95.5673 299.06 97.3113V101.183H297.764V97.0553C297.764 95.3913 297.124 94.4793 295.956 94.4793C294.676 94.4793 293.716 95.5673 293.716 97.3113V101.183H292.42ZM314.144 97.1513C314.144 97.3593 314.112 97.5833 314.112 97.6793H308.032C308.208 99.1353 309.232 100.095 310.704 100.095C311.744 100.095 312.48 99.6473 312.96 99.0553L313.872 99.8233C313.2 100.687 312.224 101.279 310.656 101.279C308.352 101.279 306.72 99.6793 306.72 97.2953C306.72 94.9433 308.336 93.2953 310.56 93.2953C312.688 93.2953 314.144 94.9273 314.144 97.1513ZM310.544 94.4793C309.296 94.4793 308.304 95.2953 308.064 96.6233H312.848C312.656 95.3433 311.824 94.4793 310.544 94.4793ZM324.611 101.183L320.995 89.8233H322.483L325.283 98.9273H325.315L327.875 89.8233H329.395L331.939 98.9113H331.971L334.787 89.8233H336.259L332.627 101.183H331.283L328.659 91.8553H328.627L325.955 101.183H324.611ZM338.904 91.9673C338.376 91.9673 337.96 91.5513 337.96 91.0393C337.96 90.5273 338.376 90.1113 338.904 90.1113C339.432 90.1113 339.848 90.5273 339.848 91.0393C339.848 91.5513 339.432 91.9673 338.904 91.9673ZM338.248 101.183V93.3913H339.544V101.183H338.248ZM344.905 101.279C343.529 101.279 342.889 100.431 342.889 98.8633V94.5113H341.881V93.3913H342.889V90.7353L344.185 90.5913V93.3913H346.761V94.5113H344.185V98.6713C344.185 99.6153 344.393 100.063 345.129 100.063C345.593 100.063 346.073 99.8713 346.457 99.6633L346.793 100.799C346.361 101.055 345.833 101.279 344.905 101.279ZM349.135 101.183V89.4073H350.431V94.7513H350.447C351.055 93.8233 352.079 93.2953 353.327 93.2953C355.007 93.2953 356.159 94.2873 356.159 96.5113V101.183H354.863V96.8793C354.863 95.1193 354.079 94.4793 352.943 94.4793C351.391 94.4793 350.431 95.5033 350.431 97.2633V101.183H349.135ZM368.503 101.279C365.895 101.279 364.103 99.5513 364.103 96.5593V89.8233H365.495V96.4633C365.495 98.5593 366.663 99.9673 368.503 99.9673C370.263 99.9673 371.527 98.6553 371.527 96.4633V89.8233H372.919V96.5593C372.919 99.4713 371.207 101.279 368.503 101.279ZM378.36 101.279C377.064 101.279 376.072 100.831 375.32 100.175L375.976 99.1833C376.584 99.7753 377.272 100.127 378.36 100.127C379.304 100.127 379.848 99.6633 379.848 99.0713C379.848 98.3833 379.128 98.1913 377.992 97.7753C376.728 97.3273 375.656 96.8153 375.656 95.3913C375.656 94.1913 376.744 93.2953 378.216 93.2953C379.16 93.2953 380.04 93.5513 380.904 94.2553L380.232 95.2793C379.56 94.6553 378.84 94.4473 378.168 94.4473C377.56 94.4473 376.968 94.7993 376.968 95.3913C376.968 95.9993 377.592 96.3033 378.44 96.6073C380.088 97.2473 381.176 97.5353 381.16 99.0553C381.16 100.271 380.232 101.279 378.36 101.279Z" fill="#926B4F"/>
<path d="M62.2116 41.7045V27.395L51.2078 19.6601H51.4027V9.42174L38.0008 0L24.599 9.42174V19.6601H24.7939L13.7901 27.395V41.7045L0 51.3979V105.995L20.2852 105.998V103.822V101.645V77.5856L26.9231 82.252V105.998H34.4668V39.8852L26.9231 45.1905V76.9148L20.6918 72.5335L20.2852 72.2484V49.8552L12.7414 55.1605V72.287L16.2654 74.7636L12.7414 76.5376V101.647H4.40455V53.643L18.1577 43.9748H18.1946V43.948L37.9992 30.0258L57.8037 43.948V43.9748H57.8407L71.5938 53.643V101.645H63.2569V76.5376L59.7329 74.7636L63.2569 72.287V55.1605L55.7132 49.8552V72.2484L55.3065 72.5335L49.0752 76.9148V45.1905L41.5315 39.8852V106H49.0752V82.2537L55.7132 77.5872V101.647V105.998L76 105.995V51.3979L62.2099 41.7028L62.2116 41.7045ZM29.0052 11.6652L38.0008 5.34217L46.9965 11.6652V16.7006L38.0008 10.3758L29.0052 16.7006V11.6652ZM38.0008 24.6853L18.1963 38.6075V29.6385L38.0008 15.7163L57.8054 29.6385V38.6075L38.0008 24.6853Z" fill="#926B4F"/>
</svg>
