<svg width="16" height="18" viewBox="0 0 16 18" fill="none" xmlns="http://www.w3.org/2000/svg">
<path id="Vector" d="M16 7.28382C15.8497 7.29878 15.6942 7.30377 15.5387 7.30876C13.8542 7.30876 12.2838 6.49058 11.3612 5.1336V12.5322C11.3612 15.5554 8.81633 18 5.6806 18C2.53968 18 0 15.5504 0 12.5322C0 9.50887 2.54487 7.0643 5.6806 7.0643C5.79981 7.0643 5.91383 7.07428 6.03304 7.07927V9.77329C5.91383 9.75832 5.79981 9.73836 5.6806 9.73836C4.07904 9.73836 2.7781 10.9906 2.7781 12.5322C2.7781 14.0737 4.07904 15.3259 5.6806 15.3259C7.28215 15.3259 8.69712 14.1086 8.69712 12.5671L8.72303 0H11.4027C11.6566 2.31486 13.5899 4.12085 16 4.29047V7.28382Z" fill="#926B4F"/>
</svg>
