<svg width="17" height="11" viewBox="0 0 17 11" fill="none" xmlns="http://www.w3.org/2000/svg">
<path id="Vector" d="M16.6452 1.71831C16.5484 1.38558 16.3587 1.08214 16.095 0.838375C15.8313 0.594608 15.5028 0.41906 15.1425 0.329299C13.8163 6.68179e-08 8.5 0 8.5 0C8.5 0 3.18371 -6.68179e-08 1.85748 0.327548C1.49703 0.417017 1.16842 0.592468 0.904654 0.83628C0.64089 1.08009 0.451257 1.38368 0.354799 1.71656C-7.23771e-08 2.94268 0 5.5 0 5.5C0 5.5 -7.23771e-08 8.05733 0.354799 9.28169C0.550223 9.9578 1.12701 10.4903 1.85748 10.6707C3.18371 11 8.5 11 8.5 11C8.5 11 13.8163 11 15.1425 10.6707C15.8749 10.4903 16.4498 9.9578 16.6452 9.28169C17 8.05733 17 5.5 17 5.5C17 5.5 17 2.94268 16.6452 1.71831ZM6.81138 7.84713V3.15287L11.2132 5.48248L6.81138 7.84713Z" fill="#926B4F"/>
</svg>
